<svg xmlns="http://www.w3.org/2000/svg" xmlns:xlink="http://www.w3.org/1999/xlink" viewBox="0 0 1608.71 1001.2"><defs><style>.cls-1{fill:url(#Degradado_sin_nombre_13);}.cls-2{fill:#76b8f3;}.cls-3{fill:#649df2;}.cls-4{fill:#152562;}.cls-5{fill:#fff;}</style><radialGradient id="Degradado_sin_nombre_13" cx="771.21" cy="522.61" r="552.43" gradientUnits="userSpaceOnUse"><stop offset="0" stop-color="#fff"/><stop offset="0.97" stop-color="#a4ccf3"/></radialGradient></defs><title>Recurso 1</title><g id="Capa_2" data-name="Capa 2"><g id="Capa_11" data-name="Capa 11"><rect class="cls-1" x="89.71" y="140.61" width="1363" height="764"/><path class="cls-2" d="M585.71,485.61l-3-7s1,5-3-3,1,1-6-7,2,1-6-3,2,1-5-3,0,0-5-3,0,0-5-4,0,0-6-2,0,0-6-1,0,0-6,1-5-1-5-1l-5-6c-5-6-3-3-3-3l-2-6-2-3-4-2s-5-4-7-6c-1.41-1.41-5,0-9-2a12.13,12.13,0,0,0-5-1c-3,0-7-3-11-5,0,0,5,0-10,3-3.54.71-1,1-14,7,0,0-4,4-5,8s-3,4-4,4-8,4-11,8c-1.34,1.79-7-3-9,0a36.09,36.09,0,0,0-4,5,47.09,47.09,0,0,0-5,2c-2,1-3,1-7,5l-4,2-7-1-6-1s-4-1-5-3c0,0-3,2-5,1a35.48,35.48,0,0,0-7-1,32,32,0,0,1-7-1s-4,2-7,1c0,0-2,1-12,0a17,17,0,0,1-7,4,20.34,20.34,0,0,1-5,1l-5-3a8.76,8.76,0,0,0-6-2,40.76,40.76,0,0,0-7,2,30.83,30.83,0,0,0-7,5c-3,3-6,1-9,1a52,52,0,0,0-5,3,18.66,18.66,0,0,1-4,3s-4,2-7,2a20.34,20.34,0,0,0-5-1h-5a20.34,20.34,0,0,1-5-1l-5,3a39.33,39.33,0,0,0-6,2c-2,1-8,0-8,0l-7-4-4-4v89l-6,351,315-310,51-50Z"/><path class="cls-2" d="M555,462.07l-.47-1.41"/><path class="cls-2" d="M657.21,500.11s2-3,2-4c0,0,1-3,3-4l4-3,6-3,9-7,4-3,2-5,4-5,4-4s5-5,8-5c2,0,2-5,2-5s-1-1-4,0h0l-5-1c-5-1-4,0-8,1l-7,1a24.42,24.42,0,0,1-7-1h0l-4-4c-4-4,0,0-7-3s2,0,0,0,0,0-6,4c-3.53,2.35,1,0-7-1s2,0-7,0,0,0-6-1,0,0-8,0,0,0-8,1-7,4-7,4l-7,2-8,2h-7a21.8,21.8,0,0,1-6-1l-5-3a34.53,34.53,0,0,1-8-6,37.84,37.84,0,0,0-8-1,14,14,0,0,0-6,7l-6,4"/><path class="cls-2" d="M710.71,447.61a95.59,95.59,0,0,0,10-12c7-10,11-14,11-14l23-12,17-11,15-11,16-12s10,7,21-18,17-35,17-35c10-9,21-21,21-21l13-14s8-22,21-5,12,7,13,17h0c1,10,1,20,1,20,2,10,6,23,6,23,7,11,15,25,15,25s-2,2,14,11l16,9h0c10-26-10-9,10-26s22-27,25-19a51.28,51.28,0,0,1,3,16l1,30c0,9,10,24,10,24l29,14,15,9,16,7,9,12c8,12,17,26,17,26s7,12,17,11,20-3,20-3l14-8,7-6s3-13,13-13l17,9,8,15c12,12,29,24,29,24l19,15,23,7,13-13,14-16,18-15c-5,2,2-10,2-10a164.22,164.22,0,0,1,20-7c4,5,9.78,4.84,13,10a97.72,97.72,0,0,0,12,15l27,13c8,0,17-6,17-6,14-4,36-9,36-9s-2.27,6.75,18,9c36,4,19,10,36,4h0l27-11,35,5c16,2,25.85-.31,34,4,17,9,24,409,24,409l-1369,2,25-295,441-168"/><path class="cls-2" d="M1297,495.49"/><path class="cls-2" d="M646.77,506.36h1.81"/><path class="cls-2" d="M623.23,490.06c-11-8.94-55.9,26.41-58,21.74s-26.06-59.68-19.06-57.68,31,4,46,2,36.45,23.08,36.45,23.08l-10.45,17.92Z"/><path class="cls-3" d="M100.71,620.61l28-7s11-5,18-11,16-15,16-15h34a116.68,116.68,0,0,0,29-9c15-9,35-16,35-16l18-11,33-20c12-2,25,6,25,6l20,7,18,7h34l27-5c13,1,35,1,35,1l20-1s27-24,27-6-1.58,22.68,5,24a100.16,100.16,0,0,0,26,2c12-4,23-8,23-8l18-2,20-7,22,13c11,9,31,9,31,9a51.64,51.64,0,0,0,27-18c13-16,27-35,27-35,11-10,26-20,26-20,10-5,21-10,30-12l18-4h19c14,4,30,0,30,0,15-12,20-12,20-12,15,7,31,16,31,16l9,18,13,11c11-11,20-15,20-15,16,4,29,6,29,6,3,5,16-2,16-2,16,0,22,4,22,4a26.89,26.89,0,0,0,3,18c6,3,13-6,13-6,7-2,15,0,15,0a118,118,0,0,1,16,13c7,7,25,7,25,7,13-3,22-13,22-13,4-5,13-10,13-10,11,3,27,3,27,3,31,6,43,6,43,6l8,18c7,11,13,8,19,14,13,13,21.64,4.61,33,11a239.05,239.05,0,0,0,33,15l18,7s-.53-2.4,11-6a56.58,56.58,0,0,0,25-16c16-5,12-4,27-3l15,1h18c14-12,27-16,27-16a39.21,39.21,0,0,1,9-5c11-4,29-8,29-8l4,375-1377-3S105.71,618.61,100.71,620.61Z"/><path class="cls-4" d="M537.62,678.12h7.25a1.5,1.5,0,0,0,0-3h-7.25a1.5,1.5,0,0,0,0,3Z"/><path class="cls-4" d="M574.6,668.86l9.06-5.43a1.5,1.5,0,0,0-1.51-2.59l-9.06,5.43a1.5,1.5,0,0,0,1.51,2.59Z"/><path class="cls-4" d="M599.6,658.14l9.06-3.62c1.77-.71,1-3.61-.8-2.89l-9.06,3.62c-1.77.71-1,3.61.8,2.89Z"/><path class="cls-4" d="M90.71,676.61l16-18,9-33,14-21s-9,4,2-20l11-24,9-14,20-15,33,2c27,29,8.88,7.42,25,25,33,36,20,29,20,29s-15,20,25,11-16,20,22,0-22,16,18-9-9,7,20-11,20-14,20-14c40-27,18-11,18-11l18-16h15s31,9,38,7,3,25,3,25c8,9,13,24,13,24l25,11h24l23-10c11-9,17.39-15.31,26-12,13,5,31,20,31,20s1,3,25,12-12,1,24,9,19,6,19,6l31,2,38-2,29-2h22l20-2s11,3,29-3-20,19,18-6-60,43,0,0,45-41,45-41l13,5c5,0,13-5,13-5a103.27,103.27,0,0,0,12-8c8-5,7.91-7.36,15-9,13-3,29-3,29-3,11,1,23,9,23,9,13,7,17,14,17,14,8.67,1.93,18.27,62.31,80.63,78.36q3.57.92,7.37,1.64c69,13,12.53,1.49,20-2,15-7,26-9,26-9l20-4c5,4,30,13,30,13,11-4,17-9,17-9,5-5,14-11,14-11,9-3,22-2,22-2a60.41,60.41,0,0,1,16,11l22,9,20,13s15,15,31,13c0,0,29,5,38-4l18-16s3-3,16-6c0,0,21-2,27-2l26,2-15,261-1380-11Z"/><path class="cls-5" d="M625.07,132.2c-5.56,47.46-9.88,100,18.28,138.63,25.24,34.59,70,48.42,102.36,76.43,82,70.94,65,209.63,137.83,290,44.27,48.9,113.32,66.41,178.89,73.64s133.18,6.91,194.94,30.09c50.17,18.83,93.42,52.1,140.64,77.42s103,42.85,154.14,26.74c-14.59,39.53-2.33,93.59-37.4,116.94-10.56,7-23.49,9.35-36,11.28-284.41,43.87-575.17-26.46-861.88-1.79C516,980.3,416,1000.73,314.72,1001.19c-29.92.14-60.77-1.7-87.75-14.64-25.53-12.25-45.54-33.48-63.48-55.38C109,864.61,68,787.69,37.17,707.41,15.18,650.22-2,589.88.19,528.65,3.48,436.89,49.37,353,78.64,265.95c21.13-62.84,35.51-131.49,81.17-179.55,42.26-44.49,104.55-63.57,165-74.28C409-2.81,495.93-4.82,580,11c32.5,6.12,67.93,17.43,84,46.35s-6.67,75.85-38.84,68.17"/><polyline class="cls-5" points="622.75 140.48 1260.71 140.48 1260.71 899.62 1388.71 899.62 1453.71 899.62 1453.71 142.62"/></g></g></svg>