<svg xmlns="http://www.w3.org/2000/svg" xmlns:xlink="http://www.w3.org/1999/xlink" viewBox="0 0 639.73 633.3"><defs><style>.cls-1{fill:url(#Degradado_sin_nombre_13);}.cls-2{fill:#76b8f3;}.cls-3{fill:#649df2;}.cls-4{fill:#2a56a9;}.cls-5{fill:#152562;}.cls-6{fill:#00022c;}</style><radialGradient id="Degradado_sin_nombre_13" cx="319.86" cy="316.65" r="318.26" gradientUnits="userSpaceOnUse"><stop offset="0" stop-color="#fff"/><stop offset="0.97" stop-color="#a4ccf3"/></radialGradient></defs><title>mountains-bg-svg</title><g id="Capa_2" data-name="Capa 2"><g id="mountains"><g id="mountain-vector"><path id="bg" class="cls-1" d="M3.13,0c-5,45.17-7.26,93.88,19.24,130.21,25.24,34.59,70,48.42,102.36,76.43,82,70.94,65,209.63,137.83,290,44.27,48.9,101.59,90.09,167.16,97.32,63.83,7,159.76,7,210,39.3V1.5L53,0Z"/><path id="mont-a" class="cls-2" d="M429.72,594c63.83,7,159.76,7,210,39.3V390.39l-21-6.39-19-15s-17-12-29-24l-8-15-17-9c-10,0-13,13-13,13l-7,6-14,8s-10,2-20,3-17-11-17-11-9-14-17-26l-9-12-16-7-15-9-29-14s-10-15-10-24l-1-30a51.28,51.28,0,0,0-3-16c-3-8-5,2-25,19s-6-19-16,7l-22.84,7.71a29.55,29.55,0,0,1-1.16-8.71s-8-14-15-25c0,0-4-13-6-23,0,0,0-10-1-20s0,0-13-17-21,5-21,5l-13,14s-11,12-21,21c0,0-6,10-17,35s-21,18-21,18l-16,12-5.22,3.83c43,74.82,42.38,179.93,102.06,245.85C306.83,545.58,364.16,586.77,429.72,594Z"/><path id="mont-b" class="cls-3" d="M429.72,594c63.83,7,159.76,7,210,39.3V440.5a226.84,226.84,0,0,1-24-11.5c-11.36-6.39-20,2-33-11-6-6-12-3-19-14l-8-18s-12,0-43-6c0,0-16,0-27-3,0,0-9,5-13,10,0,0-9,10-22,13,0,0-18,0-25-7a118,118,0,0,0-16-13s-8-2-15,0c0,0-7,9-13,6a26.89,26.89,0,0,1-3-18s-6-4-22-4c0,0-13,7-16,2,0,0-13-2-29-6,0,0-9,4-20,15l-13-11-9-18s-16-9-31-16c0,0-5,0-20,12a72,72,0,0,1-22.94,1.38c15.64,55.08,29.32,111.91,66.78,153.29C306.83,545.58,364.16,586.77,429.72,594Z"/><path id="mont-c" class="cls-4" d="M638.72,458a17.9,17.9,0,0,0-6,5l-5,5a30.73,30.73,0,0,1-9,6l-6-1-9-1h-7c-2,0-5,0-7,1s-7,3-7,3l-7,4h-9l-8-1-5-1-6,1-3,3-10,5-12-2s-6,10-8,9-7-10-7-10a32.17,32.17,0,0,0-1-8,18.58,18.58,0,0,0-8,0s-4,3-7,5c0,0-2-2-8-2-4,0-6-4-6-4a27.64,27.64,0,0,1-6-6s-4-4-7-5a25.07,25.07,0,0,0-9-4l-6-1a44.17,44.17,0,0,0-8,3h-6l-6-1h-6l-7,2-5,6-8,4-5,1-4-2-6,3-10,2s16-5-13-3l-6-2-6-2h-9s17,3-14,4c-2.08.07-3.76.11-5.12.12-1.59.25-3.52.54-5.88.88l-3.19.45-2.81.55c-31,6-11,2-11,2l-6,1-7,5-14,3h-14L256,488.92q3.18,4,6.6,7.75a380.83,380.83,0,0,0,52,48.1c94.17,16.38,326.72,56.62,325.13,54.22C637.72,596,638.72,458,638.72,458Z"/><path id="mont-d" class="cls-5" d="M262.56,496.68c44.27,48.9,101.59,90.09,167.16,97.32,63.83,7,159.76,7,210,39.3v-131a57.69,57.69,0,0,0-13-8.32s-13-1-22,2c0,0-9,6-14,11,0,0-6,5-17,9,0,0-25-9-30-13l-20,4s-31,4-46,11q-3.8-.72-7.37-1.64c-62.36-16.05-72-76.44-80.63-78.36,0,0-4-7-17-14,0,0-12-8-23-9,0,0-16,0-29,3-7.09,1.64-7,4-15,9a103.27,103.27,0,0,1-12,8s-8,5-13,5l-16.3,5.15c-2.13,1.91-8.76,7-25.25,19A186.24,186.24,0,0,0,262.56,496.68Z"/><path id="mont-e" class="cls-6" d="M632.72,558l-12,1-12,2h-12l-6-8-21-7-12-10-12-3c-12-3,0,0-16,3-2.66.3-3.75.42-4.4.86-1.54.32-1.27.33-.24.2-1.24,1.19-1.07,4.32-12.36,14.95l-9.92,5c-.17-.11-1.88-.5-12.08-2-14-2,4,0-13-2s1.7-8-18-8l-2,0c-3.46-.76-5,.58-9,3-4,0,0,0-13,3s-16-2-16-2l-13-5-11-2-8-5-10-1h-10l-18,4s-7.55,3-12.08,5.5c-1.85,1-3.2,1.94-3.32,2.52L325,552.34c31.51,21.87,66.72,37.47,104.69,41.66,63.65,7,159.21,7,209.57,39,.14-2.08.29-4.24.43-6.47V563.94C638.4,560.53,636.61,558,632.72,558Zm-120.17-5.84,0,0Zm-.41.39-.33.31Zm-.56.53-.66.62Zm-1,.94-.36.34Zm-1.08,1-.72.68Zm-.76.72-.63.6Zm-1.27,1.19-.58.54Zm-1.09,1-.21.2Zm-.42.4-.33.31Zm-.58.54-.15.14Z"/></g></g></g></svg>